<?xml version="1.0" encoding="UTF-8" standalone="no"?>
<!DOCTYPE svg PUBLIC "-//W3C//DTD SVG 1.1//EN" "http://www.w3.org/Graphics/SVG/1.1/DTD/svg11.dtd">
<svg xmlns="http://www.w3.org/2000/svg" version="1.1" viewBox="0.00 0.00 225.00 225.00">
<g stroke-width="2.00" fill="none" stroke-linecap="butt">
<path stroke="#7e6804" vector-effect="non-scaling-stroke" d="
  M 225.00 178.64
  L 88.05 178.65
  A 0.16 0.16 0.0 0 1 88.00 178.34
  Q 102.21 173.71 108.14 163.04
  C 115.88 149.11 113.39 133.14 101.80 121.99
  A 0.63 0.61 -51.2 0 1 101.72 121.19
  L 124.12 87.85
  A 0.30 0.30 0.0 0 1 124.59 87.82
  L 131.09 95.03
  A 0.69 0.69 0.0 0 1 131.14 95.89
  C 130.21 97.21 128.58 99.30 127.79 100.80
  Q 122.14 111.45 124.12 122.60
  C 127.48 141.43 146.26 153.79 165.06 148.55
  C 185.56 142.83 195.07 120.16 185.38 101.58
  C 176.31 84.20 154.35 79.09 138.17 89.67
  A 0.78 0.78 0.0 0 1 137.16 89.54
  L 119.60 70.06
  A 0.41 0.40 58.4 0 1 119.75 69.40
  L 138.47 62.16
  A 0.10 0.09 -31.1 0 0 138.51 62.01
  L 132.97 55.86
  A 0.43 0.42 -31.0 0 0 132.51 55.75
  L 105.57 66.16
  A 0.27 0.27 0.0 0 0 105.46 66.59
  L 116.59 78.94
  A 0.36 0.36 0.0 0 1 116.45 79.52
  L 80.07 93.57
  A 0.41 0.39 -10.9 0 0 79.81 93.94
  L 79.81 102.17
  A 0.15 0.15 0.0 0 0 80.01 102.31
  L 112.35 89.81
  A 0.25 0.25 0.0 0 1 112.65 90.19
  L 94.99 116.45
  A 0.87 0.87 0.0 0 1 93.92 116.77
  Q 79.82 110.74 66.83 116.33
  C 50.58 123.33 42.95 141.69 49.19 158.16
  Q 54.84 173.05 71.77 178.40
  A 0.15 0.15 0.0 0 1 71.73 178.69
  L 0.00 178.66"
/>
<path stroke="#7e6804" vector-effect="non-scaling-stroke" d="
  M 0.00 80.50
  L 79.30 49.88
  A 0.41 0.39 -10.9 0 0 79.56 49.51
  L 79.56 41.26
  A 0.15 0.14 -11.2 0 0 79.36 41.13
  L 0.00 71.79"
/>
<path stroke="#7e6804" vector-effect="non-scaling-stroke" d="
  M 79.61 59.14
  A 0.33 0.33 0.0 0 0 79.16 58.83
  L 24.35 80.01
  A 0.33 0.33 0.0 0 0 24.22 80.54
  L 29.58 86.49
  A 0.33 0.33 0.0 0 0 29.94 86.58
  L 79.40 67.47
  A 0.33 0.33 0.0 0 0 79.61 67.16
  L 79.61 59.14"
/>
<path stroke="#7e6804" vector-effect="non-scaling-stroke" d="
  M 79.66 76.69
  A 0.33 0.33 0.0 0 0 79.21 76.38
  L 53.74 86.22
  A 0.33 0.33 0.0 0 0 53.61 86.75
  L 58.98 92.70
  A 0.33 0.33 0.0 0 0 59.34 92.79
  L 79.45 85.02
  A 0.33 0.33 0.0 0 0 79.66 84.71
  L 79.66 76.69"
/>
<path stroke="#7e6804" vector-effect="non-scaling-stroke" d="
  M 156.36 116.86
  Q 154.60 118.45 153.72 119.26
  A 0.53 0.52 -42.1 0 1 152.98 119.23
  L 137.37 101.92
  A 0.46 0.46 0.0 0 0 136.65 101.97
  C 128.21 114.51 130.88 129.92 143.51 137.91
  C 152.49 143.59 164.78 142.57 172.93 135.21
  C 181.08 127.84 183.34 115.72 178.60 106.21
  C 171.93 92.84 156.87 88.62 143.54 95.75
  A 0.46 0.46 0.0 0 0 143.41 96.46
  L 159.05 113.74
  A 0.53 0.52 -42.1 0 1 159.01 114.48
  Q 158.11 115.28 156.36 116.86"
/>
<path stroke="#7e6804" vector-effect="non-scaling-stroke" d="
  M 79.86 146.47
  Q 77.89 145.16 76.88 144.50
  A 0.53 0.52 33.8 0 1 76.74 143.78
  L 89.70 124.40
  A 0.46 0.46 0.0 0 0 89.48 123.72
  C 75.25 118.60 60.96 124.96 56.31 139.16
  C 53.00 149.26 56.99 160.92 66.13 167.03
  C 75.26 173.13 87.57 172.35 95.63 165.43
  C 106.96 155.69 107.36 140.05 97.19 128.87
  A 0.46 0.46 0.0 0 0 96.47 128.93
  L 83.54 148.32
  A 0.53 0.52 33.7 0 1 82.81 148.46
  Q 81.82 147.79 79.86 146.47"
/>
</g>
<path fill="transparent" d="
  M 225.00 0.00
  L 225.00 178.64
  L 88.05 178.65
  A 0.16 0.16 0.0 0 1 88.00 178.34
  Q 102.21 173.71 108.14 163.04
  C 115.88 149.11 113.39 133.14 101.80 121.99
  A 0.63 0.61 -51.2 0 1 101.72 121.19
  L 124.12 87.85
  A 0.30 0.30 0.0 0 1 124.59 87.82
  L 131.09 95.03
  A 0.69 0.69 0.0 0 1 131.14 95.89
  C 130.21 97.21 128.58 99.30 127.79 100.80
  Q 122.14 111.45 124.12 122.60
  C 127.48 141.43 146.26 153.79 165.06 148.55
  C 185.56 142.83 195.07 120.16 185.38 101.58
  C 176.31 84.20 154.35 79.09 138.17 89.67
  A 0.78 0.78 0.0 0 1 137.16 89.54
  L 119.60 70.06
  A 0.41 0.40 58.4 0 1 119.75 69.40
  L 138.47 62.16
  A 0.10 0.09 -31.1 0 0 138.51 62.01
  L 132.97 55.86
  A 0.43 0.42 -31.0 0 0 132.51 55.75
  L 105.57 66.16
  A 0.27 0.27 0.0 0 0 105.46 66.59
  L 116.59 78.94
  A 0.36 0.36 0.0 0 1 116.45 79.52
  L 80.07 93.57
  A 0.41 0.39 -10.9 0 0 79.81 93.94
  L 79.81 102.17
  A 0.15 0.15 0.0 0 0 80.01 102.31
  L 112.35 89.81
  A 0.25 0.25 0.0 0 1 112.65 90.19
  L 94.99 116.45
  A 0.87 0.87 0.0 0 1 93.92 116.77
  Q 79.82 110.74 66.83 116.33
  C 50.58 123.33 42.95 141.69 49.19 158.16
  Q 54.84 173.05 71.77 178.40
  A 0.15 0.15 0.0 0 1 71.73 178.69
  L 0.00 178.66
  L 0.00 80.50
  L 79.30 49.88
  A 0.41 0.39 -10.9 0 0 79.56 49.51
  L 79.56 41.26
  A 0.15 0.14 -11.2 0 0 79.36 41.13
  L 0.00 71.79
  L 0.00 0.00
  L 225.00 0.00
  Z
  M 79.61 59.14
  A 0.33 0.33 0.0 0 0 79.16 58.83
  L 24.35 80.01
  A 0.33 0.33 0.0 0 0 24.22 80.54
  L 29.58 86.49
  A 0.33 0.33 0.0 0 0 29.94 86.58
  L 79.40 67.47
  A 0.33 0.33 0.0 0 0 79.61 67.16
  L 79.61 59.14
  Z
  M 79.66 76.69
  A 0.33 0.33 0.0 0 0 79.21 76.38
  L 53.74 86.22
  A 0.33 0.33 0.0 0 0 53.61 86.75
  L 58.98 92.70
  A 0.33 0.33 0.0 0 0 59.34 92.79
  L 79.45 85.02
  A 0.33 0.33 0.0 0 0 79.66 84.71
  L 79.66 76.69
  Z"
/>
<path fill="#000000" d="
  M 0.00 80.50
  L 0.00 71.79
  L 79.36 41.13
  A 0.15 0.14 -11.2 0 1 79.56 41.26
  L 79.56 49.51
  A 0.41 0.39 -10.9 0 1 79.30 49.88
  L 0.00 80.50
  Z"
/>
<path fill="#000000" d="
  M 225.00 178.64
  L 225.00 225.00
  L 0.00 225.00
  L 0.00 178.66
  L 71.73 178.69
  A 0.15 0.15 0.0 0 0 71.77 178.40
  Q 54.84 173.05 49.19 158.16
  C 42.95 141.69 50.58 123.33 66.83 116.33
  Q 79.82 110.74 93.92 116.77
  A 0.87 0.87 0.0 0 0 94.99 116.45
  L 112.65 90.19
  A 0.25 0.25 0.0 0 0 112.35 89.81
  L 80.01 102.31
  A 0.15 0.15 0.0 0 1 79.81 102.17
  L 79.81 93.94
  A 0.41 0.39 -10.9 0 1 80.07 93.57
  L 116.45 79.52
  A 0.36 0.36 0.0 0 0 116.59 78.94
  L 105.46 66.59
  A 0.27 0.27 0.0 0 1 105.57 66.16
  L 132.51 55.75
  A 0.43 0.42 -31.0 0 1 132.97 55.86
  L 138.51 62.01
  A 0.10 0.09 -31.1 0 1 138.47 62.16
  L 119.75 69.40
  A 0.41 0.40 58.4 0 0 119.60 70.06
  L 137.16 89.54
  A 0.78 0.78 0.0 0 0 138.17 89.67
  C 154.35 79.09 176.31 84.20 185.38 101.58
  C 195.07 120.16 185.56 142.83 165.06 148.55
  C 146.26 153.79 127.48 141.43 124.12 122.60
  Q 122.14 111.45 127.79 100.80
  C 128.58 99.30 130.21 97.21 131.14 95.89
  A 0.69 0.69 0.0 0 0 131.09 95.03
  L 124.59 87.82
  A 0.30 0.30 0.0 0 0 124.12 87.85
  L 101.72 121.19
  A 0.63 0.61 -51.2 0 0 101.80 121.99
  C 113.39 133.14 115.88 149.11 108.14 163.04
  Q 102.21 173.71 88.00 178.34
  A 0.16 0.16 0.0 0 0 88.05 178.65
  L 225.00 178.64
  Z
  M 156.36 116.86
  Q 154.60 118.45 153.72 119.26
  A 0.53 0.52 -42.1 0 1 152.98 119.23
  L 137.37 101.92
  A 0.46 0.46 0.0 0 0 136.65 101.97
  C 128.21 114.51 130.88 129.92 143.51 137.91
  C 152.49 143.59 164.78 142.57 172.93 135.21
  C 181.08 127.84 183.34 115.72 178.60 106.21
  C 171.93 92.84 156.87 88.62 143.54 95.75
  A 0.46 0.46 0.0 0 0 143.41 96.46
  L 159.05 113.74
  A 0.53 0.52 -42.1 0 1 159.01 114.48
  Q 158.11 115.28 156.36 116.86
  Z
  M 79.86 146.47
  Q 77.89 145.16 76.88 144.50
  A 0.53 0.52 33.8 0 1 76.74 143.78
  L 89.70 124.40
  A 0.46 0.46 0.0 0 0 89.48 123.72
  C 75.25 118.60 60.96 124.96 56.31 139.16
  C 53.00 149.26 56.99 160.92 66.13 167.03
  C 75.26 173.13 87.57 172.35 95.63 165.43
  C 106.96 155.69 107.36 140.05 97.19 128.87
  A 0.46 0.46 0.0 0 0 96.47 128.93
  L 83.54 148.32
  A 0.53 0.52 33.7 0 1 82.81 148.46
  Q 81.82 147.79 79.86 146.47
  Z"
/>
<path fill="#000000" d="
  M 79.61 59.14
  L 79.61 67.16
  A 0.33 0.33 0.0 0 1 79.40 67.47
  L 29.94 86.58
  A 0.33 0.33 0.0 0 1 29.58 86.49
  L 24.22 80.54
  A 0.33 0.33 0.0 0 1 24.35 80.01
  L 79.16 58.83
  A 0.33 0.33 0.0 0 1 79.61 59.14
  Z"
/>
<path fill="#000000" d="
  M 79.66 76.69
  L 79.66 84.71
  A 0.33 0.33 0.0 0 1 79.45 85.02
  L 59.34 92.79
  A 0.33 0.33 0.0 0 1 58.98 92.70
  L 53.61 86.75
  A 0.33 0.33 0.0 0 1 53.74 86.22
  L 79.21 76.38
  A 0.33 0.33 0.0 0 1 79.66 76.69
  Z"
/>
<path fill="transparent" d="
  M 172.93 135.21
  C 164.78 142.57 152.49 143.59 143.51 137.91
  C 130.88 129.92 128.21 114.51 136.65 101.97
  A 0.46 0.46 0.0 0 1 137.37 101.92
  L 152.98 119.23
  A 0.53 0.52 -42.1 0 0 153.72 119.26
  Q 154.60 118.45 156.36 116.86
  Q 158.11 115.28 159.01 114.48
  A 0.53 0.52 -42.1 0 0 159.05 113.74
  L 143.41 96.46
  A 0.46 0.46 0.0 0 1 143.54 95.75
  C 156.87 88.62 171.93 92.84 178.60 106.21
  C 183.34 115.72 181.08 127.84 172.93 135.21
  Z"
/>
<path fill="transparent" d="
  M 79.86 146.47
  Q 81.82 147.79 82.81 148.46
  A 0.53 0.52 33.7 0 0 83.54 148.32
  L 96.47 128.93
  A 0.46 0.46 0.0 0 1 97.19 128.87
  C 107.36 140.05 106.96 155.69 95.63 165.43
  C 87.57 172.35 75.26 173.13 66.13 167.03
  C 56.99 160.92 53.00 149.26 56.31 139.16
  C 60.96 124.96 75.25 118.60 89.48 123.72
  A 0.46 0.46 0.0 0 1 89.70 124.40
  L 76.74 143.78
  A 0.53 0.52 33.8 0 0 76.88 144.50
  Q 77.89 145.16 79.86 146.47
  Z"
/>
</svg>
